<?xml version="1.0" encoding="UTF-8"?>
<svg id="Layer_1" data-name="Layer 1" xmlns="http://www.w3.org/2000/svg" xmlns:xlink="http://www.w3.org/1999/xlink" viewBox="0 0 303.16 75.99">
  <defs>
    <style>
      .cls-1 {
        clip-path: url(#clippath);
      }

      .cls-2 {
        fill: none;
      }

      .cls-3 {
        fill: #ed7735;
      }
    </style>
    <clipPath id="clippath">
      <rect class="cls-2" x="0" y="0" width="303.16" height="75.99"/>
    </clipPath>
  </defs>
  <g class="cls-1">
    <path class="cls-3" d="M119.2,24.15h0c1.23,.96,2.69,1.44,4.33,1.44s3.09-.49,4.33-1.44c.93-.72,2.03-2.08,2.03-4.5,0-1.73-.66-3.21-1.91-4.3-1.21-1.05-2.7-1.58-4.45-1.58s-3.25,.53-4.45,1.58c-1.25,1.09-1.91,2.58-1.91,4.3,0,2.42,1.11,3.78,2.03,4.5"/>
    <path class="cls-3" d="M138.65,24.16c1.18,.95,2.59,1.43,4.2,1.43s3.02-.48,4.2-1.43c.88-.71,1.92-2.03,1.92-4.34,0-1.69-.64-3.14-1.85-4.18-1.16-1.01-2.6-1.52-4.27-1.52s-3.11,.51-4.27,1.52c-1.21,1.05-1.85,2.5-1.85,4.19,0,2.31,1.05,3.63,1.92,4.34"/>
    <path class="cls-3" d="M151.51,24.16h0c1.18,.95,2.59,1.43,4.2,1.43s3.02-.48,4.2-1.43c.88-.71,1.92-2.03,1.92-4.34,0-1.68-.63-3.13-1.81-4.18-1.15-1.02-2.6-1.53-4.31-1.53s-3.11,.51-4.27,1.52c-1.21,1.05-1.85,2.5-1.85,4.19,0,2.31,1.05,3.63,1.92,4.34"/>
    <path class="cls-3" d="M279.29,35.27c-1.66-1.75-3.64-3.03-5.88-3.79-2.16-.74-4.7-1.12-7.54-1.12h-14.55l17.32-23.99-8.74-6.36-22.29,30.39-.02,.44c-.17,2.96,.44,4.79,1.02,6.28,.58,1.49,1.3,2.8,2.13,3.89l.45,.59h25.52c.84,0,1.59,.16,2.27,.5,.67,.33,1.2,.74,1.61,1.26,.42,.51,.73,1.12,.93,1.8,.22,.75,.33,1.66,.33,2.69v4.84h-34.17c-2.99,0-5.24-.62-6.7-1.84,.07-.57,.14-1.17,.2-1.76,.08-.9,.13-1.85,.13-2.84V23.48h-11.24v23.84c0,1.93-.46,3.39-1.4,4.46-.89,1.01-2.27,1.51-4.21,1.51s-3.28-.52-4.36-1.6c-1.07-1.07-1.6-2.83-1.6-5.25v-15.84h-11.3v16.2c0,1.22-.19,2.21-.55,2.94-.37,.74-.84,1.31-1.42,1.75-.61,.45-1.26,.76-2,.93-.81,.19-1.6,.29-2.35,.29h-4.54V30.59h-11.3v22.1h-19.7V27.63h-11.3v25.07h-14.6V27.63h-11.3v25.07h-9.62v-7.21c0-2.56-.28-4.96-.82-7.15-.57-2.32-1.59-4.27-3.04-5.8-1.66-1.75-3.64-3.03-5.88-3.79-2.16-.74-4.7-1.12-7.54-1.12h-4.23v11.3h5.06c.84,0,1.61,.16,2.3,.48,.67,.31,1.18,.7,1.58,1.22,.43,.52,.73,1.11,.93,1.8,.22,.75,.33,1.66,.33,2.7v7.57h-20.68v11.3h114.33c2.45,0,4.83-.5,7.07-1.49,1.66-.73,3.16-1.68,4.5-2.82,.5,.61,1.04,1.16,1.61,1.63,1,.82,2.09,1.48,3.24,1.97,1.13,.48,2.32,.82,3.55,1.02,1.18,.19,2.4,.28,3.62,.28,5.51,0,9.73-1.53,12.57-4.55,.09,.11,.18,.21,.28,.32,.64,.71,1.45,1.35,2.42,1.9,.95,.54,2.11,.98,3.43,1.28,.55,.13,1.16,.23,1.8,.3v.16h48.22v-15.78c0-2.56-.27-4.96-.82-7.15-.57-2.32-1.59-4.27-3.04-5.8"/>
    <rect class="cls-3" x="291.87" y="12.93" width="11.3" height="51.06"/>
    <path class="cls-3" d="M293.85,74.5c-1.19-.99-1.78-2.69-1.78-5.1v-2.44h11.05v3.99h-6.8c0,.85,.21,1.5,.64,1.96,.42,.46,1.17,.69,2.23,.69h2.23v2.39h-2.66c-2.09,0-3.73-.5-4.91-1.49"/>
    <path class="cls-3" d="M79.24,16.64c.39,0,.58-.19,.58-.58v-.19c0-.39-.19-.58-.58-.58h-.78v1.16l.78,.19Zm-.97-1.55h1.16c.58,0,.97,.39,.97,.97v.19c0,.39-.19,.78-.78,.97l.58,1.36h-.39l-.58-1.16h-.58v1.16h-.39v-3.49Zm3.1,1.74c0-1.16-.97-2.13-2.13-2.13s-2.13,.97-2.13,2.13,.97,2.13,2.13,2.13,2.13-.97,2.13-2.13m-4.85,0c0-1.55,1.16-2.71,2.71-2.71s2.71,1.16,2.71,2.71-1.16,2.72-2.71,2.72-2.71-1.36-2.71-2.72"/>
    <path class="cls-3" d="M0,59.93c0-2.33,1.94-4.08,4.95-4.08h.69v-.75h1.2v7.69h1.88v1.2h-3.77c-2.64,0-4.95-1.23-4.95-4.06m5.64,2.86v-5.74h-1.18c-1.63,0-3.25,1.14-3.25,2.88s1.46,2.86,3.25,2.86h1.18Zm-3.15-10.01c0-.44,.36-.78,.83-.78s.82,.34,.82,.78c0,.48-.37,.8-.82,.8s-.83-.32-.83-.8m2.89,0c0-.44,.36-.78,.82-.78s.84,.34,.84,.78c0,.48-.38,.8-.84,.8s-.82-.32-.82-.8"/>
    <path class="cls-3" d="M8.43,62.8h3.18v-6.94h1.2v6.94h3.05v1.2h-7.42v-1.2Zm1.39,3.55c0-.45,.36-.79,.83-.79s.82,.34,.82,.79c0,.48-.38,.78-.82,.78s-.83-.3-.83-.78m2.9,0c0-.45,.36-.79,.82-.79s.84,.34,.84,.79c0,.48-.38,.78-.84,.78s-.82-.3-.82-.78"/>
    <path class="cls-3" d="M15.57,62.8h1.86c-.23-.54-.36-1.14-.36-1.77,0-2.43,1.88-4.38,4.27-4.38s4.38,1.89,4.38,4.38c0,.65-.14,1.24-.38,1.77h2.16v1.2h-2.94c-.79,.86-1.95,1.37-3.23,1.37s-2.35-.53-3.13-1.37h-2.64v-1.2Zm8.95-1.79c0-1.83-1.35-3.16-3.18-3.16s-3.07,1.44-3.07,3.16,1.32,3.14,3.07,3.14,3.18-1.32,3.18-3.14"/>
    <path class="cls-3" d="M27.21,62.8h3.18v-6.94h1.2v8.14h-4.38v-1.2Zm.27,3.55c0-.45,.36-.79,.83-.79s.83,.34,.83,.79c0,.48-.38,.78-.83,.78s-.83-.3-.83-.78m2.9,0c0-.45,.36-.79,.82-.79s.84,.34,.84,.79c0,.48-.37,.78-.84,.78s-.82-.3-.82-.78"/>
    <path class="cls-3" d="M33.27,62.8h5.62v-3.48c0-.69-.12-1.17-.45-1.59-.33-.41-.9-.68-1.47-.68h-1.05v-1.2h.88c1.12,0,1.89,.34,2.52,1.05,.51,.58,.76,1.44,.76,2.37v4.72h-6.82v-1.2Z"/>
    <polygon class="cls-3" points="43.08 51.83 44.28 51.83 44.28 62.8 46.83 62.8 46.83 63.99 43.08 63.99 43.08 51.83"/>
    <path class="cls-3" d="M46.53,62.8h9.51v-2.7c0-.65-.11-1.15-.44-1.56-.33-.4-.88-.64-1.65-.64h-6.12c-.3-.33-.47-.69-.54-1.22l2.56-4.84h1.26l-2.48,4.86h5.31c1.18,0,1.92,.33,2.53,1.03,.51,.58,.75,1.45,.75,2.37v3.9h-10.71v-1.2Z"/>
    <path class="cls-3" d="M58.98,62.8h4.14c.92,0,1.59-.22,2.09-.61,.48-.39,.79-1.02,.79-1.97v-9.49h2.31v1.2h-1.11v8.29c0,1.12-.4,2.16-1.1,2.77-.79,.71-2.04,1.01-3.43,1.01h-3.54l-.15-1.2Zm1.58-10.68c0-1.22,.59-1.82,1.69-1.82h.62v.67h-.51c-.69,0-.93,.32-.93,.84h1.92v.8h-2.79v-.49Zm.85,1.42h1.2v8.44h-1.2v-8.44Z"/>
    <rect class="cls-3" x="71.34" y="51.83" width="1.2" height="12.16"/>
  </g>
</svg>